# xmcd CD database file
#
# Track frame offsets:
#	150
#	12350
#	24925
#	40297
#	59260
#	72230
#	85460
#	104320
#	116465
#	126107
#
# Disc length: 1903 seconds
#
# Revision: 5
# Processed by: cddbd v1.5.1PL2 Copyright (c) Steve Scherf et al.
# Submitted via: CDex 1.51
#
DISCID=7e076d0a
DTITLE=Clint Black - One Emotion
DYEAR=1994
DGENRE=Country
TTITLE0=One Emotion
TTITLE1=Summer's Comin'
TTITLE2=Untanglin' My Mind
TTITLE3=Wherever You Go
TTITLE4=A Change In The Air
TTITLE5=Life Gets Away
TTITLE6=I Can Get By
TTITLE7=Hey Hot Rod
TTITLE8=You Walked By
TTITLE9=You Made Me Feel
EXTD=YEAR: 1994
EXTT0=
EXTT1=
EXTT2=
EXTT3=
EXTT4=
EXTT5=
EXTT6=
EXTT7=
EXTT8=
EXTT9=
PLAYORDER=
